# xmcd
#
# Track frame offsets: 
#        150
#        16892
#        41826
#        58614
#        78922
#        93411
#        107535
#        130127
#        146377
#        160156
#        178313
#        198934
#
# Disc length: 2747 seconds
#
# Revision: 0
# Processed by: cddbd v1.5.2PL0 Copyright (c) Steve Scherf et al.
# Submitted via: ExactAudioCopy v1.3
#
DISCID=980ab90c
DTITLE=Zoe Mulford - Coyote Wings
DYEAR=2013
DGENRE=Folk
TTITLE0=Pocket Fulla Quarters
TTITLE1=Coyote Wings
TTITLE2=Sister - Sail
TTITLE3=Storm Damage
TTITLE4=Sleeping in Her Evening Gown
TTITLE5=No Moon At All
TTITLE6=Humboldt County
TTITLE7=We Could Just Pretend
TTITLE8=Acrobats
TTITLE9=When the Coffee's All Gone
TTITLE10=Sunrise Susquehanna
TTITLE11=Night Noise, Swannanoa, NC
EXTD=
EXTT0=
EXTT1=
EXTT2=
EXTT3=
EXTT4=
EXTT5=
EXTT6=
EXTT7=
EXTT8=
EXTT9=
EXTT10=
EXTT11=
PLAYORDER=
